<svg xmlns="http://www.w3.org/2000/svg" width="108.274" height="130.424" viewBox="0 0 108.274 130.424">
  <g id="Sophia_Icon" transform="translate(2053 -6891.601)">
    <g id="Group_2014" data-name="Group 2014" transform="translate(-2135.425 6701.49)">
      <text id="SOPHIA" transform="translate(93.955 316.535)" fill="#1a1818" font-size="17" font-family="SegoeUI, Segoe UI" letter-spacing="0.2em"><tspan x="0" y="0">SOPHIA</tspan></text>
      <path id="Path_2785" data-name="Path 2785" d="M148.371,345.126a62.584,62.584,0,0,1-3.577,10.135c-2.194,4.6-3.433,8.413-7.1,10.355s2.05.847,2.8.287c2.3-1.713,4.422-5.479,5.951-10.181A38.617,38.617,0,0,0,148.371,345.126Z" transform="translate(-27.201 -78.017)" fill="#1a1818"/>
      <path id="Path_2786" data-name="Path 2786" d="M255.06,329.883c-.564-.325-1.915.325-2.4.647s-1.05,2.476-.735,2.581a7.083,7.083,0,0,1,1.248,1.094l1.325-.357s-1.578-.306-1.8-.69a1.462,1.462,0,0,1-.192-1.442c.281-.489.165-.871.725-1.117S255.06,329.883,255.06,329.883Z" transform="translate(-85.262 -70.301)" fill="none"/>
      <g id="Group_1311" data-name="Group 1311" transform="translate(93.839 190.111)">
        <path id="Path_2787" data-name="Path 2787" d="M195.854,287.3l-2.8-.249a1.046,1.046,0,0,0-.185,2.083l2.8.248a1.045,1.045,0,1,0,.185-2.082Zm0,0" transform="translate(-148.944 -238.897)" fill="#1a1818"/>
        <g id="Group_1310" data-name="Group 1310">
          <path id="Path_2788" data-name="Path 2788" d="M199.2,282.351l-2.8-.249a1.045,1.045,0,1,0-.186,2.083l2.8.249a1.045,1.045,0,1,0,.185-2.083Zm0,0" transform="translate(-150.627 -236.407)" fill="#1a1818"/>
          <path id="Path_2789" data-name="Path 2789" d="M161.334,256.147a1.057,1.057,0,0,0,.436-.367l5.15-7.62a1.045,1.045,0,1,0-1.732-1.171l-4.248,6.284-5.817-9.344L166,227.836l11.448,1.016-9.712,14.366a1.046,1.046,0,0,0,1.733,1.171l10.706-15.837a1.062,1.062,0,0,0,.065-1.059L163.21,194a1.059,1.059,0,0,0-.839-.567l-37.425-3.321a1.057,1.057,0,0,0-.965.466l-18.4,27.218a1.061,1.061,0,0,0-.066,1.059l7.5,14.757a1.046,1.046,0,0,0,1.864-.948l-6.554-12.888,10.516,1.858,10.223,20.1-5.462,8.08-6.574-12.927a1.045,1.045,0,1,0-1.863.948l7.378,14.509a1.057,1.057,0,0,0,.839.567l17,1.509a1.046,1.046,0,1,0,.185-2.083l-15.238-1.352,5.462-8.08,22.463,1.993,5.645,9.066-13.615-1.208a1.045,1.045,0,1,0-.184,2.083l15.7,1.393a1.062,1.062,0,0,0,.523-.089Zm-7.261-49.533,9.62,18.917-21.14-1.876-9.62-18.917ZM166.15,225.75l-10.2-20.05,6.2-9.168,15.371,30.226Zm-11.929-21.221-22.405-1.988-5.175-10.178,33.778,3Zm-29.5-11.318,5.21,10.245-10.88,16.094-10.839-1.916Zm6.293,12.376,3.932,7.733,5.722,11.252-10.266,15.186-9.655-18.985Zm11.387,20.156,21.215,1.883-10.266,15.186-21.214-1.883Zm0,0" transform="translate(-105.405 -190.111)" fill="#1a1818"/>
        </g>
      </g>
      <g id="Group_1313" data-name="Group 1313" transform="translate(151.26 190.983)">
        <path id="Path_2790" data-name="Path 2790" d="M268.6,243.009l-1.474-.131a.55.55,0,1,0-.1,1.1l1.475.131a.55.55,0,1,0,.1-1.1Zm0,0" transform="translate(-243.918 -217.539)" fill="#1a1818"/>
        <g id="Group_1312" data-name="Group 1312" transform="translate(0)">
          <path id="Path_2791" data-name="Path 2791" d="M270.363,240.405l-1.474-.131a.55.55,0,1,0-.1,1.1l1.475.131a.55.55,0,0,0,.1-1.1Zm0,0" transform="translate(-244.804 -216.229)" fill="#1a1818"/>
          <path id="Path_2792" data-name="Path 2792" d="M250.438,226.616a.558.558,0,0,0,.229-.193l2.71-4.009a.55.55,0,1,0-.911-.616l-2.236,3.307-3.061-4.917,5.725-8.469,6.024.534-5.111,7.56a.55.55,0,0,0,.912.616l5.633-8.334a.557.557,0,0,0,.034-.557l-8.962-17.623a.558.558,0,0,0-.442-.3l-19.694-1.748a.557.557,0,0,0-.508.245L221.1,206.436a.559.559,0,0,0-.035.558l3.949,7.765a.55.55,0,0,0,.981-.5l-3.449-6.782,5.534.978,5.379,10.578-2.874,4.252-3.46-6.8a.55.55,0,0,0-.981.5l3.883,7.635a.557.557,0,0,0,.442.3l8.948.794a.55.55,0,0,0,.1-1.1L231.5,223.9l2.874-4.252,11.821,1.049,2.97,4.771L242,224.835a.55.55,0,1,0-.1,1.1l8.262.733a.557.557,0,0,0,.275-.047Zm-3.821-26.065,5.062,9.955-11.124-.987-5.062-9.954Zm6.355,10.07-5.365-10.551,3.261-4.824,8.089,15.906ZM246.7,199.454l-11.79-1.046-2.723-5.356,17.774,1.578ZM231.174,193.5l2.741,5.391-5.725,8.469-5.7-1.008Zm3.312,6.512,2.069,4.069L239.566,210l-5.4,7.991-5.08-9.99Zm5.992,10.606,11.164.991-5.4,7.991-11.164-.991Zm0,0" transform="translate(-221.007 -191.867)" fill="#1a1818"/>
        </g>
      </g>
      <g id="Group_1315" data-name="Group 1315" transform="translate(82.424 238.841)">
        <path id="Path_2793" data-name="Path 2793" d="M130.02,339.359l-1.474-.131a.55.55,0,0,0-.1,1.1l1.475.131a.55.55,0,0,0,.1-1.1Zm0,0" transform="translate(-105.335 -313.889)" fill="#1a1818"/>
        <g id="Group_1314" data-name="Group 1314">
          <path id="Path_2794" data-name="Path 2794" d="M131.78,336.755l-1.475-.131a.55.55,0,0,0-.1,1.1l1.475.131a.55.55,0,1,0,.1-1.1Zm0,0" transform="translate(-106.221 -312.579)" fill="#1a1818"/>
          <path id="Path_2795" data-name="Path 2795" d="M111.855,322.966a.558.558,0,0,0,.229-.193l2.71-4.009a.55.55,0,1,0-.911-.616l-2.236,3.307-3.061-4.917,5.725-8.469,6.024.534-5.111,7.56a.55.55,0,1,0,.911.616l5.634-8.334a.558.558,0,0,0,.034-.557l-8.962-17.623a.559.559,0,0,0-.442-.3l-19.694-1.747a.558.558,0,0,0-.508.245l-9.681,14.323a.558.558,0,0,0-.035.557l3.949,7.765a.55.55,0,0,0,.981-.5l-3.449-6.782,5.534.978,5.379,10.578L92,319.636l-3.46-6.8a.55.55,0,0,0-.98.5l3.883,7.635a.556.556,0,0,0,.442.3l8.948.794a.55.55,0,0,0,.1-1.1l-8.018-.711L95.788,316l11.82,1.049,2.97,4.771-7.164-.636a.55.55,0,1,0-.1,1.1l8.262.733a.552.552,0,0,0,.275-.047ZM108.035,296.9l5.062,9.955-11.124-.987-5.062-9.955Zm6.355,10.07-5.365-10.551,3.261-4.824,8.089,15.906ZM108.113,295.8l-11.79-1.046L93.6,289.4l17.774,1.577Zm-15.521-5.956,2.741,5.391-5.725,8.469L83.9,302.7ZM95.9,296.36l2.069,4.069,3.011,5.921-5.4,7.991-5.08-9.99Zm5.992,10.606,11.164.99-5.4,7.992-11.164-.991Zm0,0" transform="translate(-82.424 -288.217)" fill="#1a1818"/>
        </g>
      </g>
      <path id="Path_2796" data-name="Path 2796" d="M238.414,316.462l2.135,1.228,2.135-1.228v-2.453l-2.135-1.228-2.135,1.228Z" transform="translate(-78.508 -61.738)" fill="#1a1818"/>
      <path id="Path_2797" data-name="Path 2797" d="M223.84,271.557l-.519,1.745,2.153,8.621-2.153,6.653,3.171,19.337-5.24.345-.455,3.54-5.081.744,2.135,2.285-2.454,1.192.817,5.653-2.994,3.012-9.123-1.276-12.2-10.617-2.829-.559,14.157,12.452,9.81,1.518,4.532-3.912-.745-5.464,3.229-1.676-1.428-1.614,3.725-.683.541-3.385,5.73-.874L224.9,288.638l1.925-6.981Z" transform="translate(-53.674 -40.991)" fill="#1a1818"/>
      <path id="Path_2798" data-name="Path 2798" d="M212.922,378.312l-1.49,7.141,1.987,6.336,5.619,6.02h-3.073l-4.843-5.65-1.8-6.209,1.8-8.754Z" transform="translate(-63.865 -94.157)" fill="#1a1818"/>
      <path id="Path_2799" data-name="Path 2799" d="M134.437,342l-1.863,9.562-4.761,8.8-17.3,19.194h4.754l14.479-18.637,4.691-9.23,1.863-9.6Z" transform="translate(-14.136 -76.443)" fill="#1a1818"/>
    </g>
  </g>
</svg>
